<svg width="277" height="410" viewBox="0 0 277 410" fill="none" xmlns="http://www.w3.org/2000/svg">
<rect x="59.4451" width="220" height="380" rx="30" transform="rotate(9 59.4451 0)" fill="#FFB703"/>
<rect x="70.7521" y="17" width="190" height="350" rx="25" transform="rotate(9 70.7521 17)" fill="#333333"/>
<rect x="161.311" y="44.8022" width="35" height="30" rx="8" transform="rotate(9 161.311 44.8022)" fill="#5C5C5C"/>
<rect x="155.523" y="81.3466" width="35" height="30" rx="8" transform="rotate(9 155.523 81.3466)" fill="#5C5C5C"/>
<rect x="68.7448" y="105.063" width="35" height="30" rx="8" transform="rotate(9 68.7448 105.063)" fill="#5C5C5C"/>
<rect x="62.9567" y="141.608" width="35" height="30" rx="8" transform="rotate(9 62.9567 141.608)" fill="#5C5C5C"/>
<rect x="57.1686" y="178.152" width="35" height="30" rx="8" transform="rotate(9 57.1686 178.152)" fill="#5C5C5C"/>
<rect x="51.3805" y="214.697" width="35" height="30" rx="8" transform="rotate(9 51.3805 214.697)" fill="#5C5C5C"/>
<rect x="91.8757" y="221.111" width="35" height="30" rx="8" transform="rotate(9 91.8757 221.111)" fill="#5C5C5C"/>
<rect x="97.6638" y="184.566" width="35" height="30" rx="8" transform="rotate(9 97.6638 184.566)" fill="#5C5C5C"/>
<rect x="139.147" y="191.136" width="35" height="30" rx="8" transform="rotate(9 139.147 191.136)" fill="#5C5C5C"/>
<rect x="37.3505" y="309.671" width="163" height="41" rx="15" transform="rotate(9 37.3505 309.671)" fill="#5C5C5C"/>
<rect x="183.593" y="198.176" width="35" height="30" rx="8" transform="rotate(9 183.593 198.176)" fill="#5C5C5C"/>
<rect x="103.452" y="148.022" width="35" height="30" rx="8" transform="rotate(9 103.452 148.022)" fill="#5C5C5C"/>
<rect x="109.24" y="111.477" width="35" height="30" rx="8" transform="rotate(9 109.24 111.477)" fill="#5C5C5C"/>
<rect x="200.957" y="88.5426" width="35" height="30" rx="8" transform="rotate(9 200.957 88.5426)" fill="#5C5C5C"/>
<rect x="206.745" y="51.9982" width="35" height="30" rx="8" transform="rotate(9 206.745 51.9982)" fill="#5C5C5C"/>
<rect x="149.735" y="117.891" width="81" height="67" rx="15" transform="rotate(9 149.735 117.891)" fill="#5C5C5C"/>
<rect x="80.7902" y="29.0115" width="70" height="70" rx="15" transform="rotate(9 80.7902 29.0115)" fill="#FFB703"/>
<rect x="82.7902" y="32.3656" width="65" height="65" rx="15" transform="rotate(9 82.7902 32.3656)" fill="#333333"/>
</svg>
